<?xml version="1.0" encoding="UTF-8" standalone="no"?>
<!DOCTYPE svg PUBLIC "-//W3C//DTD SVG 1.1//EN"
 "http://www.w3.org/Graphics/SVG/1.1/DTD/svg11.dtd">
<!-- Generated by graphviz version 2.44.0 (20200408.0750)
 -->
<!-- Title: dependencies Pages: 1 -->
<svg width="504pt" height="211pt"
 viewBox="0.00 0.00 504.00 211.00" xmlns="http://www.w3.org/2000/svg" xmlns:xlink="http://www.w3.org/1999/xlink">
<g id="graph0" class="graph" transform="scale(1 1) rotate(0) translate(4 207)">
<title>dependencies</title>
<polygon fill="white" stroke="transparent" points="-4,4 -4,-207 500,-207 500,4 -4,4"/>
<text text-anchor="start" x="227.01" y="-42.4" font-family="sans-serif" font-weight="bold" font-size="14.00">Legend</text>
<polygon fill="#ffffb3" stroke="transparent" points="14,-10 14,-30 34,-30 34,-10 14,-10"/>
<text text-anchor="start" x="37.63" y="-15.4" font-family="sans-serif" font-size="14.00"> &#160;Declarations</text>
<polygon fill="#8dd3c7" stroke="transparent" points="127,-10 127,-30 147,-30 147,-10 127,-10"/>
<text text-anchor="start" x="150.73" y="-15.4" font-family="sans-serif" font-size="14.00"> &#160;Module</text>
<polygon fill="#80b1d3" stroke="transparent" points="213,-10 213,-30 233,-30 233,-10 213,-10"/>
<text text-anchor="start" x="236.78" y="-15.4" font-family="sans-serif" font-size="14.00"> &#160;Bootstrap</text>
<polygon fill="#fdb462" stroke="transparent" points="310,-10 310,-30 330,-30 330,-10 310,-10"/>
<text text-anchor="start" x="333.67" y="-15.4" font-family="sans-serif" font-size="14.00"> &#160;Providers</text>
<polygon fill="#fb8072" stroke="transparent" points="406,-10 406,-30 426,-30 426,-10 406,-10"/>
<text text-anchor="start" x="429.73" y="-15.4" font-family="sans-serif" font-size="14.00"> &#160;Exports</text>
<g id="clust1" class="cluster">
<title>cluster_AgencyModule</title>
<polygon fill="none" stroke="black" stroke-dasharray="1,5" points="86,-70 86,-195 410,-195 410,-70 86,-70"/>
</g>
<g id="clust6" class="cluster">
<title>cluster_AgencyModule_providers</title>
<polygon fill="none" stroke="black" points="94,-78 94,-130 402,-130 402,-78 94,-78"/>
</g>
<!-- AgencyService -->
<g id="node1" class="node">
<title>AgencyService</title>
<ellipse fill="#fdb462" stroke="black" cx="324" cy="-104" rx="70.04" ry="18"/>
<text text-anchor="middle" x="324" y="-99.8" font-family="Times,serif" font-size="14.00">AgencyService</text>
</g>
<!-- AgencyModule -->
<g id="node3" class="node">
<title>AgencyModule</title>
<polygon fill="#8dd3c7" stroke="black" points="297.59,-187 294.59,-191 273.59,-191 270.59,-187 194.41,-187 194.41,-151 297.59,-151 297.59,-187"/>
<text text-anchor="middle" x="246" y="-164.8" font-family="Times,serif" font-size="14.00">AgencyModule</text>
</g>
<!-- AgencyService&#45;&gt;AgencyModule -->
<g id="edge1" class="edge">
<title>AgencyService&#45;&gt;AgencyModule</title>
<path fill="none" stroke="black" d="M275.76,-117.15C275.76,-117.15 275.76,-140.69 275.76,-140.69"/>
<polygon fill="black" stroke="black" points="272.26,-140.69 275.76,-150.69 279.26,-140.69 272.26,-140.69"/>
</g>
<!-- PrismaService -->
<g id="node2" class="node">
<title>PrismaService</title>
<ellipse fill="#fdb462" stroke="black" cx="169" cy="-104" rx="66.63" ry="18"/>
<text text-anchor="middle" x="169" y="-99.8" font-family="Times,serif" font-size="14.00">PrismaService</text>
</g>
<!-- PrismaService&#45;&gt;AgencyModule -->
<g id="edge2" class="edge">
<title>PrismaService&#45;&gt;AgencyModule</title>
<path fill="none" stroke="black" d="M215.14,-117.15C215.14,-117.15 215.14,-140.69 215.14,-140.69"/>
<polygon fill="black" stroke="black" points="211.64,-140.69 215.14,-150.69 218.64,-140.69 211.64,-140.69"/>
</g>
</g>
</svg>
