<?xml version="1.0" encoding="UTF-8" standalone="no"?>
<!DOCTYPE svg PUBLIC "-//W3C//DTD SVG 1.1//EN"
 "http://www.w3.org/Graphics/SVG/1.1/DTD/svg11.dtd">
<!-- Generated by graphviz version 2.44.0 (20200408.0750)
 -->
<!-- Title: dependencies Pages: 1 -->
<svg width="710pt" height="211pt"
 viewBox="0.00 0.00 710.00 211.00" xmlns="http://www.w3.org/2000/svg" xmlns:xlink="http://www.w3.org/1999/xlink">
<g id="graph0" class="graph" transform="scale(1 1) rotate(0) translate(4 207)">
<title>dependencies</title>
<polygon fill="white" stroke="transparent" points="-4,4 -4,-207 706,-207 706,4 -4,4"/>
<text text-anchor="start" x="330.01" y="-42.4" font-family="sans-serif" font-weight="bold" font-size="14.00">Legend</text>
<polygon fill="#ffffb3" stroke="transparent" points="117,-10 117,-30 137,-30 137,-10 117,-10"/>
<text text-anchor="start" x="140.63" y="-15.4" font-family="sans-serif" font-size="14.00"> &#160;Declarations</text>
<polygon fill="#8dd3c7" stroke="transparent" points="230,-10 230,-30 250,-30 250,-10 230,-10"/>
<text text-anchor="start" x="253.73" y="-15.4" font-family="sans-serif" font-size="14.00"> &#160;Module</text>
<polygon fill="#80b1d3" stroke="transparent" points="316,-10 316,-30 336,-30 336,-10 316,-10"/>
<text text-anchor="start" x="339.78" y="-15.4" font-family="sans-serif" font-size="14.00"> &#160;Bootstrap</text>
<polygon fill="#fdb462" stroke="transparent" points="413,-10 413,-30 433,-30 433,-10 413,-10"/>
<text text-anchor="start" x="436.67" y="-15.4" font-family="sans-serif" font-size="14.00"> &#160;Providers</text>
<polygon fill="#fb8072" stroke="transparent" points="509,-10 509,-30 529,-30 529,-10 509,-10"/>
<text text-anchor="start" x="532.73" y="-15.4" font-family="sans-serif" font-size="14.00"> &#160;Exports</text>
<g id="clust1" class="cluster">
<title>cluster_AppModule</title>
<polygon fill="none" stroke="black" stroke-dasharray="1,5" points="8,-70 8,-195 694,-195 694,-70 8,-70"/>
</g>
<g id="clust6" class="cluster">
<title>cluster_AppModule_providers</title>
<polygon fill="none" stroke="black" points="378,-78 378,-130 686,-130 686,-78 378,-78"/>
</g>
<g id="clust3" class="cluster">
<title>cluster_AppModule_imports</title>
<polygon fill="none" stroke="black" points="16,-78 16,-130 370,-130 370,-78 16,-78"/>
</g>
<!-- AgencyModule -->
<g id="node1" class="node">
<title>AgencyModule</title>
<polygon fill="#8dd3c7" stroke="black" points="361.59,-122 358.59,-126 337.59,-126 334.59,-122 258.41,-122 258.41,-86 361.59,-86 361.59,-122"/>
<text text-anchor="middle" x="310" y="-99.8" font-family="Times,serif" font-size="14.00">AgencyModule</text>
</g>
<!-- AppModule -->
<g id="node4" class="node">
<title>AppModule</title>
<polygon fill="#8dd3c7" stroke="black" points="351.66,-187 348.66,-191 327.66,-191 324.66,-187 268.34,-187 268.34,-151 351.66,-151 351.66,-187"/>
<text text-anchor="middle" x="310" y="-164.8" font-family="Times,serif" font-size="14.00">AppModule</text>
</g>
<!-- AgencyModule&#45;&gt;AppModule -->
<g id="edge1" class="edge">
<title>AgencyModule&#45;&gt;AppModule</title>
<path fill="none" stroke="black" d="M310,-122.11C310,-122.11 310,-140.99 310,-140.99"/>
<polygon fill="black" stroke="black" points="306.5,-140.99 310,-150.99 313.5,-140.99 306.5,-140.99"/>
</g>
<!-- UserModule -->
<g id="node2" class="node">
<title>UserModule</title>
<polygon fill="#8dd3c7" stroke="black" points="239.98,-122 236.98,-126 215.98,-126 212.98,-122 154.02,-122 154.02,-86 239.98,-86 239.98,-122"/>
<text text-anchor="middle" x="197" y="-99.8" font-family="Times,serif" font-size="14.00">UserModule</text>
</g>
<!-- UserModule&#45;&gt;AppModule -->
<g id="edge2" class="edge">
<title>UserModule&#45;&gt;AppModule</title>
<path fill="none" stroke="black" d="M197,-122.02C197,-139.37 197,-163 197,-163 197,-163 258.24,-163 258.24,-163"/>
<polygon fill="black" stroke="black" points="258.24,-166.5 268.24,-163 258.24,-159.5 258.24,-166.5"/>
</g>
<!-- ValidatorModule -->
<g id="node3" class="node">
<title>ValidatorModule</title>
<polygon fill="#8dd3c7" stroke="black" points="136.42,-122 133.42,-126 112.42,-126 109.42,-122 23.58,-122 23.58,-86 136.42,-86 136.42,-122"/>
<text text-anchor="middle" x="80" y="-99.8" font-family="Times,serif" font-size="14.00">ValidatorModule</text>
</g>
<!-- ValidatorModule&#45;&gt;AppModule -->
<g id="edge3" class="edge">
<title>ValidatorModule&#45;&gt;AppModule</title>
<path fill="none" stroke="black" d="M80,-122.28C80,-143.32 80,-175 80,-175 80,-175 258.08,-175 258.08,-175"/>
<polygon fill="black" stroke="black" points="258.08,-178.5 268.08,-175 258.08,-171.5 258.08,-178.5"/>
</g>
<!-- AgencyService -->
<g id="node5" class="node">
<title>AgencyService</title>
<ellipse fill="#fdb462" stroke="black" cx="608" cy="-104" rx="70.04" ry="18"/>
<text text-anchor="middle" x="608" y="-99.8" font-family="Times,serif" font-size="14.00">AgencyService</text>
</g>
<!-- AgencyService&#45;&gt;AppModule -->
<g id="edge4" class="edge">
<title>AgencyService&#45;&gt;AppModule</title>
<path fill="none" stroke="black" d="M608,-122.28C608,-143.32 608,-175 608,-175 608,-175 361.75,-175 361.75,-175"/>
<polygon fill="black" stroke="black" points="361.75,-171.5 351.75,-175 361.75,-178.5 361.75,-171.5"/>
</g>
<!-- PrismaService -->
<g id="node6" class="node">
<title>PrismaService</title>
<ellipse fill="#fdb462" stroke="black" cx="453" cy="-104" rx="66.63" ry="18"/>
<text text-anchor="middle" x="453" y="-99.8" font-family="Times,serif" font-size="14.00">PrismaService</text>
</g>
<!-- PrismaService&#45;&gt;AppModule -->
<g id="edge5" class="edge">
<title>PrismaService&#45;&gt;AppModule</title>
<path fill="none" stroke="black" d="M453,-122.02C453,-139.37 453,-163 453,-163 453,-163 361.75,-163 361.75,-163"/>
<polygon fill="black" stroke="black" points="361.75,-159.5 351.75,-163 361.75,-166.5 361.75,-159.5"/>
</g>
</g>
</svg>
