<?xml version="1.0" encoding="UTF-8" standalone="no"?>
<!DOCTYPE svg PUBLIC "-//W3C//DTD SVG 1.1//EN"
 "http://www.w3.org/Graphics/SVG/1.1/DTD/svg11.dtd">
<!-- Generated by graphviz version 2.44.0 (20200408.0750)
 -->
<!-- Title: dependencies Pages: 1 -->
<svg width="619pt" height="287pt"
 viewBox="0.00 0.00 619.00 287.00" xmlns="http://www.w3.org/2000/svg" xmlns:xlink="http://www.w3.org/1999/xlink">
<g id="graph0" class="graph" transform="scale(1 1) rotate(0) translate(4 283)">
<title>dependencies</title>
<polygon fill="white" stroke="transparent" points="-4,4 -4,-283 615,-283 615,4 -4,4"/>
<text text-anchor="start" x="284.51" y="-42.4" font-family="sans-serif" font-weight="bold" font-size="14.00">Legend</text>
<polygon fill="#ffffb3" stroke="transparent" points="71.5,-10 71.5,-30 91.5,-30 91.5,-10 71.5,-10"/>
<text text-anchor="start" x="95.13" y="-15.4" font-family="sans-serif" font-size="14.00"> &#160;Declarations</text>
<polygon fill="#8dd3c7" stroke="transparent" points="184.5,-10 184.5,-30 204.5,-30 204.5,-10 184.5,-10"/>
<text text-anchor="start" x="208.23" y="-15.4" font-family="sans-serif" font-size="14.00"> &#160;Module</text>
<polygon fill="#80b1d3" stroke="transparent" points="270.5,-10 270.5,-30 290.5,-30 290.5,-10 270.5,-10"/>
<text text-anchor="start" x="294.28" y="-15.4" font-family="sans-serif" font-size="14.00"> &#160;Bootstrap</text>
<polygon fill="#fdb462" stroke="transparent" points="367.5,-10 367.5,-30 387.5,-30 387.5,-10 367.5,-10"/>
<text text-anchor="start" x="391.17" y="-15.4" font-family="sans-serif" font-size="14.00"> &#160;Providers</text>
<polygon fill="#fb8072" stroke="transparent" points="463.5,-10 463.5,-30 483.5,-30 483.5,-10 463.5,-10"/>
<text text-anchor="start" x="487.23" y="-15.4" font-family="sans-serif" font-size="14.00"> &#160;Exports</text>
<g id="clust1" class="cluster">
<title>cluster_AgencyModule</title>
<polygon fill="none" stroke="black" stroke-dasharray="1,5" points="8,-70 8,-206 332,-206 332,-70 8,-70"/>
</g>
<g id="clust6" class="cluster">
<title>cluster_AgencyModule_providers</title>
<polygon fill="none" stroke="black" points="16,-78 16,-130 324,-130 324,-78 16,-78"/>
</g>
<g id="clust7" class="cluster">
<title>cluster_AppModule</title>
<polygon fill="none" stroke="black" stroke-dasharray="1,5" points="340,-146 340,-271 588,-271 588,-146 340,-146"/>
</g>
<g id="clust9" class="cluster">
<title>cluster_AppModule_imports</title>
<polygon fill="none" stroke="black" points="348,-154 348,-206 580,-206 580,-154 348,-154"/>
</g>
<g id="clust13" class="cluster">
<title>cluster_UserModule</title>
<polygon fill="none" stroke="black" stroke-dasharray="1,5" points="455,-70 455,-138 603,-138 603,-70 455,-70"/>
</g>
<g id="clust18" class="cluster">
<title>cluster_UserModule_providers</title>
<polygon fill="none" stroke="black" points="463,-78 463,-130 595,-130 595,-78 463,-78"/>
</g>
<!-- AgencyService -->
<g id="node1" class="node">
<title>AgencyService</title>
<ellipse fill="#fdb462" stroke="black" cx="94" cy="-104" rx="70.04" ry="18"/>
<text text-anchor="middle" x="94" y="-99.8" font-family="Times,serif" font-size="14.00">AgencyService</text>
</g>
<!-- AgencyModule -->
<g id="node3" class="node">
<title>AgencyModule</title>
<polygon fill="#8dd3c7" stroke="black" points="261.59,-198 258.59,-202 237.59,-202 234.59,-198 158.41,-198 158.41,-162 261.59,-162 261.59,-198"/>
<text text-anchor="middle" x="210" y="-175.8" font-family="Times,serif" font-size="14.00">AgencyModule</text>
</g>
<!-- AgencyService&#45;&gt;AgencyModule -->
<g id="edge1" class="edge">
<title>AgencyService&#45;&gt;AgencyModule</title>
<path fill="none" stroke="black" d="M164.03,-104C169.58,-104 173.1,-104 173.1,-104 173.1,-104 173.1,-151.99 173.1,-151.99"/>
<polygon fill="black" stroke="black" points="169.6,-151.99 173.1,-161.99 176.6,-151.99 169.6,-151.99"/>
</g>
<!-- AppModule -->
<g id="node6" class="node">
<title>AppModule</title>
<polygon fill="#8dd3c7" stroke="black" points="431.66,-263 428.66,-267 407.66,-267 404.66,-263 348.34,-263 348.34,-227 431.66,-227 431.66,-263"/>
<text text-anchor="middle" x="390" y="-240.8" font-family="Times,serif" font-size="14.00">AppModule</text>
</g>
<!-- AgencyService&#45;&gt;AppModule -->
<g id="edge6" class="edge">
<title>AgencyService&#45;&gt;AppModule</title>
<path fill="none" stroke="black" d="M91.22,-122.14C91.22,-160.23 91.22,-245 91.22,-245 91.22,-245 338.14,-245 338.14,-245"/>
<polygon fill="black" stroke="black" points="338.14,-248.5 348.14,-245 338.14,-241.5 338.14,-248.5"/>
</g>
<!-- PrismaService -->
<g id="node2" class="node">
<title>PrismaService</title>
<ellipse fill="#fdb462" stroke="black" cx="249" cy="-104" rx="66.63" ry="18"/>
<text text-anchor="middle" x="249" y="-99.8" font-family="Times,serif" font-size="14.00">PrismaService</text>
</g>
<!-- PrismaService&#45;&gt;AgencyModule -->
<g id="edge2" class="edge">
<title>PrismaService&#45;&gt;AgencyModule</title>
<path fill="none" stroke="black" d="M221.86,-120.49C221.86,-120.49 221.86,-151.95 221.86,-151.95"/>
<polygon fill="black" stroke="black" points="218.36,-151.95 221.86,-161.95 225.36,-151.95 218.36,-151.95"/>
</g>
<!-- UserModule -->
<g id="node4" class="node">
<title>UserModule</title>
<polygon fill="#8dd3c7" stroke="black" points="571.98,-198 568.98,-202 547.98,-202 544.98,-198 486.02,-198 486.02,-162 571.98,-162 571.98,-198"/>
<text text-anchor="middle" x="529" y="-175.8" font-family="Times,serif" font-size="14.00">UserModule</text>
</g>
<!-- PrismaService&#45;&gt;UserModule -->
<g id="edge8" class="edge">
<title>PrismaService&#45;&gt;UserModule</title>
<path fill="none" stroke="black" d="M288.68,-118.58C288.68,-129.3 288.68,-142 288.68,-142 288.68,-142 514.67,-142 514.67,-142 514.67,-142 514.67,-151.89 514.67,-151.89"/>
<polygon fill="black" stroke="black" points="511.17,-151.89 514.67,-161.89 518.17,-151.89 511.17,-151.89"/>
</g>
<!-- PrismaService&#45;&gt;AppModule -->
<g id="edge7" class="edge">
<title>PrismaService&#45;&gt;AppModule</title>
<path fill="none" stroke="black" d="M315.91,-104C336.21,-104 353.25,-104 353.25,-104 353.25,-104 353.25,-216.86 353.25,-216.86"/>
<polygon fill="black" stroke="black" points="349.75,-216.86 353.25,-226.86 356.75,-216.86 349.75,-216.86"/>
</g>
<!-- AgencyModule&#45;&gt;AppModule -->
<g id="edge3" class="edge">
<title>AgencyModule&#45;&gt;AppModule</title>
<path fill="none" stroke="black" d="M261.6,-180C301.76,-180 350.71,-180 350.71,-180 350.71,-180 350.71,-216.89 350.71,-216.89"/>
<polygon fill="black" stroke="black" points="347.21,-216.89 350.71,-226.89 354.21,-216.89 347.21,-216.89"/>
</g>
<!-- UserModule&#45;&gt;AppModule -->
<g id="edge4" class="edge">
<title>UserModule&#45;&gt;AppModule</title>
<path fill="none" stroke="black" d="M529,-198.11C529,-217.34 529,-245 529,-245 529,-245 441.7,-245 441.7,-245"/>
<polygon fill="black" stroke="black" points="441.7,-241.5 431.7,-245 441.7,-248.5 441.7,-241.5"/>
</g>
<!-- ValidatorModule -->
<g id="node5" class="node">
<title>ValidatorModule</title>
<polygon fill="#8dd3c7" stroke="black" points="468.42,-198 465.42,-202 444.42,-202 441.42,-198 355.58,-198 355.58,-162 468.42,-162 468.42,-198"/>
<text text-anchor="middle" x="412" y="-175.8" font-family="Times,serif" font-size="14.00">ValidatorModule</text>
</g>
<!-- ValidatorModule&#45;&gt;AppModule -->
<g id="edge5" class="edge">
<title>ValidatorModule&#45;&gt;AppModule</title>
<path fill="none" stroke="black" d="M393.81,-198.11C393.81,-198.11 393.81,-216.99 393.81,-216.99"/>
<polygon fill="black" stroke="black" points="390.31,-216.99 393.81,-226.99 397.31,-216.99 390.31,-216.99"/>
</g>
<!-- UserService -->
<g id="node7" class="node">
<title>UserService</title>
<ellipse fill="#fdb462" stroke="black" cx="529" cy="-104" rx="58.44" ry="18"/>
<text text-anchor="middle" x="529" y="-99.8" font-family="Times,serif" font-size="14.00">UserService</text>
</g>
<!-- UserService&#45;&gt;UserModule -->
<g id="edge9" class="edge">
<title>UserService&#45;&gt;UserModule</title>
<path fill="none" stroke="black" d="M543.33,-121.63C543.33,-121.63 543.33,-151.94 543.33,-151.94"/>
<polygon fill="black" stroke="black" points="539.83,-151.94 543.33,-161.94 546.83,-151.94 539.83,-151.94"/>
</g>
</g>
</svg>
